<?xml version="1.0" encoding="UTF-8"?>
<svg version="1.1" xmlns="http://www.w3.org/2000/svg" style="display: block;" viewBox="0 0 512 512">
<path transform="translate(0,0)" fill="rgb(237,246,249)" d="M 0 0 L 0 512 L 512 512 L 512 0 L 0 0 z"/>
<path transform="translate(0,0)" fill="rgb(0,109,119)" d="M 91.1227 49.2812 L 91.093 56.2182 C 90.526 66.0735 83.7345 74.4797 73.5938 75.7755 C 72.1245 75.9633 70.67 75.9453 69.1928 75.94 L 69.5383 82.1562 L 71.5078 109.189 C 71.6847 111.365 72.241 113.535 71.5648 115.682 C 69.0088 123.797 56.9525 122.671 56.1367 114.408 C 55.9672 112.691 56.2717 110.896 56.444 109.188 L 56.9273 101.622 L 58.7873 76.0215 C 57.8488 75.9155 56.9015 75.987 55.9607 75.9158 C 47.5153 75.2747 40.1337 69.9128 37.7875 61.5675 C 36.8888 58.3715 36.8197 55.286 36.814 52.0052 L 36.8713 32.5277 L 37.44 25.8325 L 38.6217 18.375 C 39.3925 14.6384 41.1307 7.33772 45.4675 6.13005 L 45.3935 47.4903 C 45.3912 48.143 45.358 48.8143 45.4095 49.465 C 45.5823 51.6535 48.6485 52.2833 50.07 50.8438 C 50.8032 50.1015 50.6 49.287 50.5855 48.3432 L 50.5712 5.8976 L 56.1823 5.93547 L 56.188 44.8802 C 56.1882 46.3585 56.1105 47.8918 56.2193 49.3638 C 56.3925 51.7085 58.9363 52.2518 60.4195 50.8242 C 61.169 50.1028 61.0682 49.5105 61.0673 48.5558 L 61.0877 5.9237 L 66.757 5.93065 C 66.9018 6.25205 66.8015 7.1726 66.8033 7.56677 L 66.8047 45.7497 C 66.8033 47.0097 66.7027 48.3417 66.8107 49.5938 C 67.0035 51.8282 71.4608 52.1992 71.69 49.8155 C 71.8083 48.5877 71.6972 47.252 71.694 46.0147 L 71.7108 5.92798 L 77.127 5.9491 C 77.2398 5.95898 77.375 5.91618 77.375 6.03943 L 77.3762 45.2713 C 77.3765 46.695 77.28 48.1972 77.4322 49.6097 C 77.7373 52.4393 82.231 52.0718 82.5955 49.775 C 82.6552 49.3982 82.6202 48.977 82.6197 48.5938 L 82.611 6.21555 C 86.881 7.4521 88.8355 15.4961 89.517 19.1803 L 90.4305 25.3242 L 91.107 35.7043 L 91.1227 49.2812 z"/>
<path transform="translate(0,0)" fill="rgb(131,197,190)" d="M 164.877 78.7188 L 164.907 71.7818 C 165.474 61.9265 172.266 53.5203 182.406 52.2245 C 183.875 52.0367 185.33 52.0547 186.807 52.06 L 186.462 45.8438 L 184.492 18.8105 C 184.315 16.6345 183.759 14.4652 184.435 12.318 C 186.991 4.203 199.048 5.329 199.863 13.5923 C 200.033 15.309 199.728 17.1038 199.556 18.8125 L 199.073 26.3778 L 197.213 51.9785 C 198.151 52.0845 199.099 52.013 200.039 52.0842 C 208.485 52.7253 215.866 58.0872 218.213 66.4325 C 219.111 69.6285 219.18 72.714 219.186 75.9948 L 219.129 95.4723 L 218.56 102.168 L 217.378 109.625 C 216.608 113.362 214.869 120.662 210.532 121.87 L 210.606 80.5097 C 210.609 79.857 210.642 79.1857 210.591 78.535 C 210.418 76.3465 207.351 75.7167 205.93 77.1562 C 205.197 77.8985 205.4 78.713 205.415 79.6568 L 205.429 122.102 L 199.818 122.065 L 199.812 83.1198 C 199.812 81.6415 199.889 80.1082 199.781 78.6362 C 199.608 76.2915 197.064 75.7482 195.581 77.1757 C 194.831 77.8972 194.932 78.4895 194.933 79.4442 L 194.912 122.076 L 189.243 122.069 C 189.098 121.748 189.198 120.827 189.197 120.433 L 189.195 82.2502 C 189.197 80.9903 189.297 79.6583 189.189 78.4062 C 188.996 76.1718 184.539 75.8007 184.31 78.1845 C 184.192 79.4123 184.303 80.748 184.306 81.9853 L 184.289 122.072 L 178.873 122.051 C 178.76 122.041 178.625 122.084 178.625 121.961 L 178.624 82.7287 C 178.624 81.305 178.72 79.8028 178.568 78.3903 C 178.263 75.5607 173.769 75.9282 173.404 78.225 C 173.345 78.6018 173.38 79.023 173.38 79.4062 L 173.389 121.784 C 169.119 120.548 167.165 112.504 166.483 108.82 L 165.57 102.676 L 164.893 92.2957 L 164.877 78.7188 z"/>
<path transform="translate(0,0)" fill="rgb(0,109,119)" d="M 347.123 49.2812 L 347.093 56.2182 C 346.526 66.0735 339.735 74.4797 329.594 75.7755 C 328.125 75.9633 326.67 75.9453 325.193 75.94 L 325.538 82.1562 L 327.508 109.189 C 327.685 111.365 328.241 113.535 327.565 115.682 C 325.009 123.797 312.952 122.671 312.137 114.408 C 311.967 112.691 312.272 110.896 312.444 109.188 L 312.927 101.622 L 314.787 76.0215 C 313.849 75.9155 312.901 75.987 311.961 75.9158 C 303.515 75.2747 296.134 69.9128 293.788 61.5675 C 292.889 58.3715 292.82 55.286 292.814 52.0052 L 292.871 32.5277 L 293.44 25.8325 L 294.622 18.375 C 295.392 14.6384 297.131 7.33772 301.467 6.13005 L 301.394 47.4903 C 301.391 48.143 301.358 48.8143 301.409 49.465 C 301.582 51.6535 304.649 52.2833 306.07 50.8438 C 306.803 50.1015 306.6 49.287 306.586 48.3432 L 306.571 5.8976 L 312.182 5.93547 L 312.188 44.8802 C 312.188 46.3585 312.111 47.8918 312.219 49.3638 C 312.392 51.7085 314.936 52.2518 316.419 50.8242 C 317.169 50.1028 317.068 49.5105 317.067 48.5558 L 317.088 5.9237 L 322.757 5.93065 C 322.902 6.25205 322.802 7.1726 322.803 7.56677 L 322.805 45.7497 C 322.803 47.0097 322.703 48.3417 322.811 49.5938 C 323.004 51.8282 327.461 52.1992 327.69 49.8155 C 327.808 48.5877 327.697 47.252 327.694 46.0147 L 327.711 5.92798 L 333.127 5.9491 C 333.24 5.95898 333.375 5.91618 333.375 6.03943 L 333.376 45.2713 C 333.376 46.695 333.28 48.1972 333.432 49.6097 C 333.737 52.4393 338.231 52.0718 338.596 49.775 C 338.655 49.3982 338.62 48.977 338.62 48.5938 L 338.611 6.21555 C 342.881 7.4521 344.836 15.4961 345.517 19.1803 L 346.43 25.3242 L 347.107 35.7043 L 347.123 49.2812 z"/>
<path transform="translate(0,0)" fill="rgb(131,197,190)" d="M 420.877 78.7188 L 420.907 71.7818 C 421.474 61.9265 428.265 53.5203 438.406 52.2245 C 439.875 52.0367 441.33 52.0547 442.807 52.06 L 442.462 45.8438 L 440.492 18.8105 C 440.315 16.6345 439.759 14.4652 440.435 12.318 C 442.991 4.203 455.048 5.329 455.863 13.5923 C 456.033 15.309 455.728 17.1038 455.556 18.8125 L 455.073 26.3778 L 453.213 51.9785 C 454.151 52.0845 455.099 52.013 456.039 52.0842 C 464.485 52.7253 471.866 58.0872 474.212 66.4325 C 475.111 69.6285 475.18 72.714 475.186 75.9948 L 475.129 95.4723 L 474.56 102.168 L 473.378 109.625 C 472.608 113.362 470.869 120.662 466.533 121.87 L 466.606 80.5097 C 466.609 79.857 466.642 79.1857 466.591 78.535 C 466.418 76.3465 463.351 75.7167 461.93 77.1562 C 461.197 77.8985 461.4 78.713 461.414 79.6568 L 461.429 122.102 L 455.818 122.065 L 455.812 83.1198 C 455.812 81.6415 455.889 80.1082 455.781 78.6362 C 455.608 76.2915 453.064 75.7482 451.581 77.1757 C 450.831 77.8972 450.932 78.4895 450.933 79.4442 L 450.912 122.076 L 445.243 122.069 C 445.098 121.748 445.199 120.827 445.197 120.433 L 445.195 82.2502 C 445.197 80.9903 445.297 79.6583 445.189 78.4062 C 444.996 76.1718 440.539 75.8007 440.31 78.1845 C 440.192 79.4123 440.303 80.748 440.306 81.9853 L 440.289 122.072 L 434.873 122.051 C 434.76 122.041 434.625 122.084 434.625 121.961 L 434.624 82.7287 C 434.623 81.305 434.72 79.8028 434.568 78.3903 C 434.263 75.5607 429.769 75.9282 429.404 78.225 C 429.345 78.6018 429.38 79.023 429.38 79.4062 L 429.389 121.784 C 425.119 120.548 423.164 112.504 422.483 108.82 L 421.57 102.676 L 420.893 92.2957 L 420.877 78.7188 z"/>
<path transform="translate(0,0)" fill="rgb(131,197,190)" d="M -27.1227 206.719 L -27.093 199.782 C -26.526 189.927 -19.7345 181.52 -9.5938 180.225 C -8.1245 180.037 -6.67 180.055 -5.1928 180.06 L -5.5383 173.844 L -7.5078 146.81 C -7.6847 144.635 -8.241 142.465 -7.5648 140.318 C -5.0088 132.203 7.0475 133.329 7.8632 141.592 C 8.0327 143.309 7.7283 145.104 7.556 146.812 L 7.0727 154.378 L 5.2127 179.978 C 6.1513 180.084 7.0985 180.013 8.0393 180.084 C 16.4847 180.725 23.8663 186.087 26.2125 194.433 C 27.1112 197.629 27.1803 200.714 27.186 203.995 L 27.1287 223.472 L 26.56 230.168 L 25.3783 237.625 C 24.6075 241.362 22.8692 248.662 18.5325 249.87 L 18.6065 208.51 C 18.6088 207.857 18.642 207.186 18.5905 206.535 C 18.4177 204.346 15.3515 203.717 13.93 205.156 C 13.1968 205.899 13.4 206.713 13.4145 207.657 L 13.4288 250.102 L 7.8177 250.065 L 7.812 211.12 C 7.8118 209.642 7.8895 208.108 7.7807 206.636 C 7.6075 204.291 5.0637 203.748 3.5805 205.176 C 2.831 205.897 2.9317 206.49 2.9327 207.444 L 2.9123 250.076 L -2.757 250.069 C -2.9018 249.748 -2.8015 248.827 -2.8033 248.433 L -2.8047 210.25 C -2.8033 208.99 -2.7027 207.658 -2.8107 206.406 C -3.0035 204.172 -7.4608 203.801 -7.69 206.185 C -7.8083 207.412 -7.6972 208.748 -7.694 209.985 L -7.7108 250.072 L -13.127 250.051 C -13.2398 250.041 -13.375 250.084 -13.375 249.961 L -13.3762 210.729 C -13.3765 209.305 -13.28 207.803 -13.4322 206.39 C -13.7373 203.561 -18.231 203.928 -18.5955 206.225 C -18.6552 206.602 -18.6202 207.023 -18.6197 207.406 L -18.611 249.784 C -22.881 248.548 -24.8355 240.504 -25.517 236.82 L -26.4305 230.676 L -27.107 220.296 L -27.1227 206.719 z"/>
<path transform="translate(0,0)" fill="rgb(0,109,119)" d="M 155.123 177.281 L 155.093 184.218 C 154.526 194.073 147.734 202.48 137.594 203.775 C 136.125 203.963 134.67 203.945 133.193 203.94 L 133.538 210.156 L 135.508 237.189 C 135.685 239.365 136.241 241.535 135.565 243.682 C 133.009 251.797 120.953 250.671 120.137 242.408 C 119.967 240.691 120.272 238.896 120.444 237.188 L 120.927 229.622 L 122.787 204.022 C 121.849 203.916 120.901 203.987 119.961 203.916 C 111.515 203.275 104.134 197.913 101.787 189.567 C 100.889 186.371 100.82 183.286 100.814 180.005 L 100.871 160.528 L 101.44 153.833 L 102.622 146.375 C 103.392 142.638 105.131 135.338 109.468 134.13 L 109.394 175.49 C 109.391 176.143 109.358 176.814 109.41 177.465 C 109.582 179.654 112.648 180.283 114.07 178.844 C 114.803 178.101 114.6 177.287 114.585 176.343 L 114.571 133.898 L 120.182 133.935 L 120.188 172.88 C 120.188 174.358 120.111 175.892 120.219 177.364 C 120.392 179.709 122.936 180.252 124.419 178.824 C 125.169 178.103 125.068 177.511 125.067 176.556 L 125.088 133.924 L 130.757 133.931 C 130.902 134.252 130.802 135.173 130.803 135.567 L 130.805 173.75 C 130.803 175.01 130.703 176.342 130.811 177.594 C 131.004 179.828 135.461 180.199 135.69 177.815 C 135.808 176.588 135.697 175.252 135.694 174.015 L 135.711 133.928 L 141.127 133.949 C 141.24 133.959 141.375 133.916 141.375 134.039 L 141.376 173.271 C 141.376 174.695 141.28 176.197 141.432 177.61 C 141.737 180.439 146.231 180.072 146.596 177.775 C 146.655 177.398 146.62 176.977 146.62 176.594 L 146.611 134.216 C 150.881 135.452 152.835 143.496 153.517 147.18 L 154.43 153.324 L 155.107 163.704 L 155.123 177.281 z"/>
<path transform="translate(0,0)" fill="rgb(131,197,190)" d="M 228.877 206.719 L 228.907 199.782 C 229.474 189.927 236.266 181.52 246.406 180.225 C 247.875 180.037 249.33 180.055 250.807 180.06 L 250.462 173.844 L 248.492 146.81 C 248.315 144.635 247.759 142.465 248.435 140.318 C 250.991 132.203 263.048 133.329 263.863 141.592 C 264.033 143.309 263.728 145.104 263.556 146.812 L 263.073 154.378 L 261.213 179.978 C 262.151 180.084 263.099 180.013 264.039 180.084 C 272.485 180.725 279.866 186.087 282.212 194.433 C 283.111 197.629 283.18 200.714 283.186 203.995 L 283.129 223.472 L 282.56 230.168 L 281.378 237.625 C 280.608 241.362 278.869 248.662 274.533 249.87 L 274.606 208.51 C 274.609 207.857 274.642 207.186 274.591 206.535 C 274.418 204.346 271.351 203.717 269.93 205.156 C 269.197 205.899 269.4 206.713 269.414 207.657 L 269.429 250.102 L 263.818 250.065 L 263.812 211.12 C 263.812 209.642 263.889 208.108 263.781 206.636 C 263.608 204.291 261.064 203.748 259.581 205.176 C 258.831 205.897 258.932 206.49 258.933 207.444 L 258.912 250.076 L 253.243 250.069 C 253.098 249.748 253.198 248.827 253.197 248.433 L 253.195 210.25 C 253.197 208.99 253.297 207.658 253.189 206.406 C 252.996 204.172 248.539 203.801 248.31 206.185 C 248.192 207.412 248.303 208.748 248.306 209.985 L 248.289 250.072 L 242.873 250.051 C 242.76 250.041 242.625 250.084 242.625 249.961 L 242.624 210.729 C 242.624 209.305 242.72 207.803 242.568 206.39 C 242.263 203.561 237.769 203.928 237.404 206.225 C 237.345 206.602 237.38 207.023 237.38 207.406 L 237.389 249.784 C 233.119 248.548 231.165 240.504 230.483 236.82 L 229.57 230.676 L 228.893 220.296 L 228.877 206.719 z"/>
<path transform="translate(0,0)" fill="rgb(0,109,119)" d="M 411.123 177.281 L 411.093 184.218 C 410.526 194.073 403.735 202.48 393.594 203.775 C 392.125 203.963 390.67 203.945 389.193 203.94 L 389.538 210.156 L 391.508 237.189 C 391.685 239.365 392.241 241.535 391.565 243.682 C 389.009 251.797 376.952 250.671 376.137 242.408 C 375.967 240.691 376.272 238.896 376.444 237.188 L 376.927 229.622 L 378.787 204.022 C 377.849 203.916 376.901 203.987 375.961 203.916 C 367.515 203.275 360.134 197.913 357.788 189.567 C 356.889 186.371 356.82 183.286 356.814 180.005 L 356.871 160.528 L 357.44 153.833 L 358.622 146.375 C 359.392 142.638 361.131 135.338 365.467 134.13 L 365.394 175.49 C 365.391 176.143 365.358 176.814 365.409 177.465 C 365.582 179.654 368.649 180.283 370.07 178.844 C 370.803 178.101 370.6 177.287 370.586 176.343 L 370.571 133.898 L 376.182 133.935 L 376.188 172.88 C 376.188 174.358 376.111 175.892 376.219 177.364 C 376.392 179.709 378.936 180.252 380.419 178.824 C 381.169 178.103 381.068 177.511 381.067 176.556 L 381.088 133.924 L 386.757 133.931 C 386.902 134.252 386.802 135.173 386.803 135.567 L 386.805 173.75 C 386.803 175.01 386.703 176.342 386.811 177.594 C 387.004 179.828 391.461 180.199 391.69 177.815 C 391.808 176.588 391.697 175.252 391.694 174.015 L 391.711 133.928 L 397.127 133.949 C 397.24 133.959 397.375 133.916 397.375 134.039 L 397.376 173.271 C 397.376 174.695 397.28 176.197 397.432 177.61 C 397.737 180.439 402.231 180.072 402.596 177.775 C 402.655 177.398 402.62 176.977 402.62 176.594 L 402.611 134.216 C 406.881 135.452 408.836 143.496 409.517 147.18 L 410.43 153.324 L 411.107 163.704 L 411.123 177.281 z"/>
<path transform="translate(0,0)" fill="rgb(131,197,190)" d="M 484.877 206.719 L 484.907 199.782 C 485.474 189.927 492.265 181.52 502.406 180.225 C 503.875 180.037 505.33 180.055 506.807 180.06 L 506.462 173.844 L 504.492 146.81 C 504.315 144.635 503.759 142.465 504.435 140.318 C 506.991 132.203 519.048 133.329 519.863 141.592 C 520.033 143.309 519.728 145.104 519.556 146.812 L 519.073 154.378 L 517.213 179.978 C 518.151 180.084 519.099 180.013 520.039 180.084 C 528.485 180.725 535.866 186.087 538.212 194.433 C 539.111 197.629 539.18 200.714 539.186 203.995 L 539.129 223.472 L 538.56 230.168 L 537.378 237.625 C 536.607 241.362 534.869 248.662 530.533 249.87 L 530.606 208.51 C 530.609 207.857 530.642 207.186 530.591 206.535 C 530.418 204.346 527.351 203.717 525.93 205.156 C 525.197 205.899 525.4 206.713 525.414 207.657 L 525.429 250.102 L 519.818 250.065 L 519.812 211.12 C 519.812 209.642 519.889 208.108 519.781 206.636 C 519.607 204.291 517.064 203.748 515.581 205.176 C 514.831 205.897 514.932 206.49 514.933 207.444 L 514.912 250.076 L 509.243 250.069 C 509.098 249.748 509.199 248.827 509.197 248.433 L 509.195 210.25 C 509.197 208.99 509.297 207.658 509.189 206.406 C 508.996 204.172 504.539 203.801 504.31 206.185 C 504.192 207.412 504.303 208.748 504.306 209.985 L 504.289 250.072 L 498.873 250.051 C 498.76 250.041 498.625 250.084 498.625 249.961 L 498.624 210.729 C 498.623 209.305 498.72 207.803 498.568 206.39 C 498.263 203.561 493.769 203.928 493.404 206.225 C 493.345 206.602 493.38 207.023 493.38 207.406 L 493.389 249.784 C 489.119 248.548 487.164 240.504 486.483 236.82 L 485.57 230.676 L 484.893 220.296 L 484.877 206.719 z"/>
<path transform="translate(0,0)" fill="rgb(0,109,119)" d="M 91.1227 305.281 L 91.093 312.218 C 90.526 322.073 83.7345 330.48 73.5938 331.775 C 72.1245 331.963 70.67 331.945 69.1928 331.94 L 69.5383 338.156 L 71.5078 365.189 C 71.6847 367.365 72.241 369.535 71.5648 371.682 C 69.0088 379.797 56.9525 378.671 56.1367 370.408 C 55.9672 368.691 56.2717 366.896 56.444 365.188 L 56.9273 357.622 L 58.7873 332.022 C 57.8488 331.916 56.9015 331.987 55.9607 331.916 C 47.5153 331.275 40.1337 325.913 37.7875 317.567 C 36.8888 314.371 36.8197 311.286 36.814 308.005 L 36.8713 288.528 L 37.44 281.832 L 38.6217 274.375 C 39.3925 270.638 41.1307 263.338 45.4675 262.13 L 45.3935 303.49 C 45.3912 304.143 45.358 304.814 45.4095 305.465 C 45.5823 307.654 48.6485 308.283 50.07 306.844 C 50.8032 306.101 50.6 305.287 50.5855 304.343 L 50.5712 261.898 L 56.1823 261.935 L 56.188 300.88 C 56.1882 302.358 56.1105 303.892 56.2193 305.364 C 56.3925 307.709 58.9363 308.252 60.4195 306.824 C 61.169 306.103 61.0682 305.51 61.0673 304.556 L 61.0877 261.924 L 66.757 261.931 C 66.9018 262.252 66.8015 263.173 66.8033 263.567 L 66.8047 301.75 C 66.8033 303.01 66.7027 304.342 66.8107 305.594 C 67.0035 307.828 71.4608 308.199 71.69 305.815 C 71.8083 304.588 71.6972 303.252 71.694 302.015 L 71.7108 261.928 L 77.127 261.949 C 77.2398 261.959 77.375 261.916 77.375 262.039 L 77.3762 301.271 C 77.3765 302.695 77.28 304.197 77.4322 305.61 C 77.7373 308.439 82.231 308.072 82.5955 305.775 C 82.6552 305.398 82.6202 304.977 82.6197 304.594 L 82.611 262.216 C 86.881 263.452 88.8355 271.496 89.517 275.18 L 90.4305 281.324 L 91.107 291.704 L 91.1227 305.281 z"/>
<path transform="translate(0,0)" fill="rgb(131,197,190)" d="M 164.877 334.719 L 164.907 327.782 C 165.474 317.926 172.266 309.52 182.406 308.224 C 183.875 308.037 185.33 308.055 186.807 308.06 L 186.462 301.844 L 184.492 274.81 C 184.315 272.635 183.759 270.465 184.435 268.318 C 186.991 260.203 199.048 261.329 199.863 269.592 C 200.033 271.309 199.728 273.104 199.556 274.812 L 199.073 282.378 L 197.213 307.978 C 198.151 308.084 199.099 308.013 200.039 308.084 C 208.485 308.725 215.866 314.087 218.213 322.433 C 219.111 325.629 219.18 328.714 219.186 331.995 L 219.129 351.472 L 218.56 358.168 L 217.378 365.625 C 216.608 369.362 214.869 376.662 210.532 377.87 L 210.606 336.51 C 210.609 335.857 210.642 335.186 210.591 334.535 C 210.418 332.346 207.351 331.717 205.93 333.156 C 205.197 333.899 205.4 334.713 205.415 335.657 L 205.429 378.102 L 199.818 378.065 L 199.812 339.12 C 199.812 337.642 199.889 336.108 199.781 334.636 C 199.608 332.291 197.064 331.748 195.581 333.176 C 194.831 333.897 194.932 334.49 194.933 335.444 L 194.912 378.076 L 189.243 378.069 C 189.098 377.748 189.198 376.827 189.197 376.433 L 189.195 338.25 C 189.197 336.99 189.297 335.658 189.189 334.406 C 188.996 332.172 184.539 331.801 184.31 334.185 C 184.192 335.412 184.303 336.748 184.306 337.985 L 184.289 378.072 L 178.873 378.051 C 178.76 378.041 178.625 378.084 178.625 377.961 L 178.624 338.729 C 178.624 337.305 178.72 335.803 178.568 334.39 C 178.263 331.561 173.769 331.928 173.404 334.225 C 173.345 334.602 173.38 335.023 173.38 335.406 L 173.389 377.784 C 169.119 376.548 167.165 368.504 166.483 364.82 L 165.57 358.676 L 164.893 348.296 L 164.877 334.719 z"/>
<path transform="translate(0,0)" fill="rgb(0,109,119)" d="M 347.123 305.281 L 347.093 312.218 C 346.526 322.073 339.735 330.48 329.594 331.775 C 328.125 331.963 326.67 331.945 325.193 331.94 L 325.538 338.156 L 327.508 365.189 C 327.685 367.365 328.241 369.535 327.565 371.682 C 325.009 379.797 312.952 378.671 312.137 370.408 C 311.967 368.691 312.272 366.896 312.444 365.188 L 312.927 357.622 L 314.787 332.022 C 313.849 331.916 312.901 331.987 311.961 331.916 C 303.515 331.275 296.134 325.913 293.788 317.567 C 292.889 314.371 292.82 311.286 292.814 308.005 L 292.871 288.528 L 293.44 281.832 L 294.622 274.375 C 295.392 270.638 297.131 263.338 301.467 262.13 L 301.394 303.49 C 301.391 304.143 301.358 304.814 301.409 305.465 C 301.582 307.654 304.649 308.283 306.07 306.844 C 306.803 306.101 306.6 305.287 306.586 304.343 L 306.571 261.898 L 312.182 261.935 L 312.188 300.88 C 312.188 302.358 312.111 303.892 312.219 305.364 C 312.392 307.709 314.936 308.252 316.419 306.824 C 317.169 306.103 317.068 305.51 317.067 304.556 L 317.088 261.924 L 322.757 261.931 C 322.902 262.252 322.802 263.173 322.803 263.567 L 322.805 301.75 C 322.803 303.01 322.703 304.342 322.811 305.594 C 323.004 307.828 327.461 308.199 327.69 305.815 C 327.808 304.588 327.697 303.252 327.694 302.015 L 327.711 261.928 L 333.127 261.949 C 333.24 261.959 333.375 261.916 333.375 262.039 L 333.376 301.271 C 333.376 302.695 333.28 304.197 333.432 305.61 C 333.737 308.439 338.231 308.072 338.596 305.775 C 338.655 305.398 338.62 304.977 338.62 304.594 L 338.611 262.216 C 342.881 263.452 344.836 271.496 345.517 275.18 L 346.43 281.324 L 347.107 291.704 L 347.123 305.281 z"/>
<path transform="translate(0,0)" fill="rgb(131,197,190)" d="M 420.877 334.719 L 420.907 327.782 C 421.474 317.926 428.265 309.52 438.406 308.224 C 439.875 308.037 441.33 308.055 442.807 308.06 L 442.462 301.844 L 440.492 274.81 C 440.315 272.635 439.759 270.465 440.435 268.318 C 442.991 260.203 455.048 261.329 455.863 269.592 C 456.033 271.309 455.728 273.104 455.556 274.812 L 455.073 282.378 L 453.213 307.978 C 454.151 308.084 455.099 308.013 456.039 308.084 C 464.485 308.725 471.866 314.087 474.212 322.433 C 475.111 325.629 475.18 328.714 475.186 331.995 L 475.129 351.472 L 474.56 358.168 L 473.378 365.625 C 472.608 369.362 470.869 376.662 466.533 377.87 L 466.606 336.51 C 466.609 335.857 466.642 335.186 466.591 334.535 C 466.418 332.346 463.351 331.717 461.93 333.156 C 461.197 333.899 461.4 334.713 461.414 335.657 L 461.429 378.102 L 455.818 378.065 L 455.812 339.12 C 455.812 337.642 455.889 336.108 455.781 334.636 C 455.608 332.291 453.064 331.748 451.581 333.176 C 450.831 333.897 450.932 334.49 450.933 335.444 L 450.912 378.076 L 445.243 378.069 C 445.098 377.748 445.199 376.827 445.197 376.433 L 445.195 338.25 C 445.197 336.99 445.297 335.658 445.189 334.406 C 444.996 332.172 440.539 331.801 440.31 334.185 C 440.192 335.412 440.303 336.748 440.306 337.985 L 440.289 378.072 L 434.873 378.051 C 434.76 378.041 434.625 378.084 434.625 377.961 L 434.624 338.729 C 434.623 337.305 434.72 335.803 434.568 334.39 C 434.263 331.561 429.769 331.928 429.404 334.225 C 429.345 334.602 429.38 335.023 429.38 335.406 L 429.389 377.784 C 425.119 376.548 423.164 368.504 422.483 364.82 L 421.57 358.676 L 420.893 348.296 L 420.877 334.719 z"/>
<path transform="translate(0,0)" fill="rgb(131,197,190)" d="M -27.1227 462.719 L -27.093 455.782 C -26.526 445.926 -19.7345 437.52 -9.5938 436.224 C -8.1245 436.037 -6.67 436.055 -5.1928 436.06 L -5.5383 429.844 L -7.5078 402.81 C -7.6847 400.635 -8.241 398.465 -7.5648 396.318 C -5.0088 388.203 7.0475 389.329 7.8632 397.592 C 8.0327 399.309 7.7283 401.104 7.556 402.812 L 7.0727 410.378 L 5.2127 435.978 C 6.1513 436.084 7.0985 436.013 8.0393 436.084 C 16.4847 436.725 23.8663 442.087 26.2125 450.433 C 27.1112 453.629 27.1803 456.714 27.186 459.995 L 27.1287 479.472 L 26.56 486.168 L 25.3783 493.625 C 24.6075 497.362 22.8692 504.662 18.5325 505.87 L 18.6065 464.51 C 18.6088 463.857 18.642 463.186 18.5905 462.535 C 18.4177 460.346 15.3515 459.717 13.93 461.156 C 13.1968 461.899 13.4 462.713 13.4145 463.657 L 13.4288 506.102 L 7.8177 506.065 L 7.812 467.12 C 7.8118 465.642 7.8895 464.108 7.7807 462.636 C 7.6075 460.291 5.0637 459.748 3.5805 461.176 C 2.831 461.897 2.9317 462.49 2.9327 463.444 L 2.9123 506.076 L -2.757 506.069 C -2.9018 505.748 -2.8015 504.827 -2.8033 504.433 L -2.8047 466.25 C -2.8033 464.99 -2.7027 463.658 -2.8107 462.406 C -3.0035 460.172 -7.4608 459.801 -7.69 462.185 C -7.8083 463.412 -7.6972 464.748 -7.694 465.985 L -7.7108 506.072 L -13.127 506.051 C -13.2398 506.041 -13.375 506.084 -13.375 505.961 L -13.3762 466.729 C -13.3765 465.305 -13.28 463.803 -13.4322 462.39 C -13.7373 459.561 -18.231 459.928 -18.5955 462.225 C -18.6552 462.602 -18.6202 463.023 -18.6197 463.406 L -18.611 505.784 C -22.881 504.548 -24.8355 496.504 -25.517 492.82 L -26.4305 486.676 L -27.107 476.296 L -27.1227 462.719 z"/>
<path transform="translate(0,0)" fill="rgb(0,109,119)" d="M 155.123 433.281 L 155.093 440.218 C 154.526 450.073 147.734 458.48 137.594 459.775 C 136.125 459.963 134.67 459.945 133.193 459.94 L 133.538 466.156 L 135.508 493.189 C 135.685 495.365 136.241 497.535 135.565 499.682 C 133.009 507.797 120.953 506.671 120.137 498.408 C 119.967 496.691 120.272 494.896 120.444 493.188 L 120.927 485.622 L 122.787 460.022 C 121.849 459.916 120.901 459.987 119.961 459.916 C 111.515 459.275 104.134 453.913 101.787 445.567 C 100.889 442.371 100.82 439.286 100.814 436.005 L 100.871 416.528 L 101.44 409.832 L 102.622 402.375 C 103.392 398.638 105.131 391.338 109.468 390.13 L 109.394 431.49 C 109.391 432.143 109.358 432.814 109.41 433.465 C 109.582 435.654 112.648 436.283 114.07 434.844 C 114.803 434.101 114.6 433.287 114.585 432.343 L 114.571 389.898 L 120.182 389.935 L 120.188 428.88 C 120.188 430.358 120.111 431.892 120.219 433.364 C 120.392 435.709 122.936 436.252 124.419 434.824 C 125.169 434.103 125.068 433.51 125.067 432.556 L 125.088 389.924 L 130.757 389.931 C 130.902 390.252 130.802 391.173 130.803 391.567 L 130.805 429.75 C 130.803 431.01 130.703 432.342 130.811 433.594 C 131.004 435.828 135.461 436.199 135.69 433.815 C 135.808 432.588 135.697 431.252 135.694 430.015 L 135.711 389.928 L 141.127 389.949 C 141.24 389.959 141.375 389.916 141.375 390.039 L 141.376 429.271 C 141.376 430.695 141.28 432.197 141.432 433.61 C 141.737 436.439 146.231 436.072 146.596 433.775 C 146.655 433.398 146.62 432.977 146.62 432.594 L 146.611 390.216 C 150.881 391.452 152.835 399.496 153.517 403.18 L 154.43 409.324 L 155.107 419.704 L 155.123 433.281 z"/>
<path transform="translate(0,0)" fill="rgb(131,197,190)" d="M 228.877 462.719 L 228.907 455.782 C 229.474 445.926 236.266 437.52 246.406 436.224 C 247.875 436.037 249.33 436.055 250.807 436.06 L 250.462 429.844 L 248.492 402.81 C 248.315 400.635 247.759 398.465 248.435 396.318 C 250.991 388.203 263.048 389.329 263.863 397.592 C 264.033 399.309 263.728 401.104 263.556 402.812 L 263.073 410.378 L 261.213 435.978 C 262.151 436.084 263.099 436.013 264.039 436.084 C 272.485 436.725 279.866 442.087 282.212 450.433 C 283.111 453.629 283.18 456.714 283.186 459.995 L 283.129 479.472 L 282.56 486.168 L 281.378 493.625 C 280.608 497.362 278.869 504.662 274.533 505.87 L 274.606 464.51 C 274.609 463.857 274.642 463.186 274.591 462.535 C 274.418 460.346 271.351 459.717 269.93 461.156 C 269.197 461.899 269.4 462.713 269.414 463.657 L 269.429 506.102 L 263.818 506.065 L 263.812 467.12 C 263.812 465.642 263.889 464.108 263.781 462.636 C 263.608 460.291 261.064 459.748 259.581 461.176 C 258.831 461.897 258.932 462.49 258.933 463.444 L 258.912 506.076 L 253.243 506.069 C 253.098 505.748 253.198 504.827 253.197 504.433 L 253.195 466.25 C 253.197 464.99 253.297 463.658 253.189 462.406 C 252.996 460.172 248.539 459.801 248.31 462.185 C 248.192 463.412 248.303 464.748 248.306 465.985 L 248.289 506.072 L 242.873 506.051 C 242.76 506.041 242.625 506.084 242.625 505.961 L 242.624 466.729 C 242.624 465.305 242.72 463.803 242.568 462.39 C 242.263 459.561 237.769 459.928 237.404 462.225 C 237.345 462.602 237.38 463.023 237.38 463.406 L 237.389 505.784 C 233.119 504.548 231.165 496.504 230.483 492.82 L 229.57 486.676 L 228.893 476.296 L 228.877 462.719 z"/>
<path transform="translate(0,0)" fill="rgb(0,109,119)" d="M 411.123 433.281 L 411.093 440.218 C 410.526 450.073 403.735 458.48 393.594 459.775 C 392.125 459.963 390.67 459.945 389.193 459.94 L 389.538 466.156 L 391.508 493.189 C 391.685 495.365 392.241 497.535 391.565 499.682 C 389.009 507.797 376.952 506.671 376.137 498.408 C 375.967 496.691 376.272 494.896 376.444 493.188 L 376.927 485.622 L 378.787 460.022 C 377.849 459.916 376.901 459.987 375.961 459.916 C 367.515 459.275 360.134 453.913 357.788 445.567 C 356.889 442.371 356.82 439.286 356.814 436.005 L 356.871 416.528 L 357.44 409.832 L 358.622 402.375 C 359.392 398.638 361.131 391.338 365.467 390.13 L 365.394 431.49 C 365.391 432.143 365.358 432.814 365.409 433.465 C 365.582 435.654 368.649 436.283 370.07 434.844 C 370.803 434.101 370.6 433.287 370.586 432.343 L 370.571 389.898 L 376.182 389.935 L 376.188 428.88 C 376.188 430.358 376.111 431.892 376.219 433.364 C 376.392 435.709 378.936 436.252 380.419 434.824 C 381.169 434.103 381.068 433.51 381.067 432.556 L 381.088 389.924 L 386.757 389.931 C 386.902 390.252 386.802 391.173 386.803 391.567 L 386.805 429.75 C 386.803 431.01 386.703 432.342 386.811 433.594 C 387.004 435.828 391.461 436.199 391.69 433.815 C 391.808 432.588 391.697 431.252 391.694 430.015 L 391.711 389.928 L 397.127 389.949 C 397.24 389.959 397.375 389.916 397.375 390.039 L 397.376 429.271 C 397.376 430.695 397.28 432.197 397.432 433.61 C 397.737 436.439 402.231 436.072 402.596 433.775 C 402.655 433.398 402.62 432.977 402.62 432.594 L 402.611 390.216 C 406.881 391.452 408.836 399.496 409.517 403.18 L 410.43 409.324 L 411.107 419.704 L 411.123 433.281 z"/>
<path transform="translate(0,0)" fill="rgb(131,197,190)" d="M 484.877 462.719 L 484.907 455.782 C 485.474 445.926 492.265 437.52 502.406 436.224 C 503.875 436.037 505.33 436.055 506.807 436.06 L 506.462 429.844 L 504.492 402.81 C 504.315 400.635 503.759 398.465 504.435 396.318 C 506.991 388.203 519.048 389.329 519.863 397.592 C 520.033 399.309 519.728 401.104 519.556 402.812 L 519.073 410.378 L 517.213 435.978 C 518.151 436.084 519.099 436.013 520.039 436.084 C 528.485 436.725 535.866 442.087 538.212 450.433 C 539.111 453.629 539.18 456.714 539.186 459.995 L 539.129 479.472 L 538.56 486.168 L 537.378 493.625 C 536.607 497.362 534.869 504.662 530.533 505.87 L 530.606 464.51 C 530.609 463.857 530.642 463.186 530.591 462.535 C 530.418 460.346 527.351 459.717 525.93 461.156 C 525.197 461.899 525.4 462.713 525.414 463.657 L 525.429 506.102 L 519.818 506.065 L 519.812 467.12 C 519.812 465.642 519.889 464.108 519.781 462.636 C 519.607 460.291 517.064 459.748 515.581 461.176 C 514.831 461.897 514.932 462.49 514.933 463.444 L 514.912 506.076 L 509.243 506.069 C 509.098 505.748 509.199 504.827 509.197 504.433 L 509.195 466.25 C 509.197 464.99 509.297 463.658 509.189 462.406 C 508.996 460.172 504.539 459.801 504.31 462.185 C 504.192 463.412 504.303 464.748 504.306 465.985 L 504.289 506.072 L 498.873 506.051 C 498.76 506.041 498.625 506.084 498.625 505.961 L 498.624 466.729 C 498.623 465.305 498.72 463.803 498.568 462.39 C 498.263 459.561 493.769 459.928 493.404 462.225 C 493.345 462.602 493.38 463.023 493.38 463.406 L 493.389 505.784 C 489.119 504.548 487.164 496.504 486.483 492.82 L 485.57 486.676 L 484.893 476.296 L 484.877 462.719 z"/>
</svg>
