<?xml version="1.0" encoding="utf-8" ?>
<svg xmlns="http://www.w3.org/2000/svg" xmlns:xlink="http://www.w3.org/1999/xlink" width="437" height="437">
	<path fill="none" transform="matrix(0.56901 0 0 0.56901 -3.05176e-05 3.05176e-05)" d="M-0 -0L768 0L768 768L-0 768L0 -0Z"/>
	<path fill="#F3F2F4" transform="matrix(0.56901 0 0 0.56901 -3.05176e-05 3.05176e-05)" d="M540.32 706.303C543.308 704.237 546.888 702.904 550.22 701.494C549.146 702.472 548.291 703.233 546.936 703.781L547.286 704.109C544.98 705.958 543.206 706.143 540.32 706.303Z"/>
	<path fill="#DFE0E4" transform="matrix(0.56901 0 0 0.56901 -3.05176e-05 3.05176e-05)" d="M743.992 384.986C745.212 387.58 744.509 391.203 744.184 393.94L743.809 398.815C743.537 401.034 744.25 403.656 743.63 405.814C743.038 407.872 743.255 409.303 743.044 411.367C742.905 412.724 742.65 413.598 742.781 415.031L743.088 414.517L743.436 415.406L743.625 414.75L743.818 414.34C744.068 413.715 744.025 413.248 744.059 412.599C744.097 411.866 744.077 412.552 744.375 411.562C744.771 410.248 743.915 408.878 744.75 407.625C744.773 406.411 744.799 405.579 745.125 404.438C745.337 403.696 745.155 402.483 745.152 401.675L745.134 394.337C745.13 393.285 744.908 392.388 745.5 391.5L745.5 386.812L745.715 386.633C746.215 394.579 745.665 402.358 744.881 410.25C744.229 416.823 743.931 423.801 740.139 429.445L743.992 384.986Z"/>
	<path fill="#DFE0E4" transform="matrix(0.56901 0 0 0.56901 -3.05176e-05 3.05176e-05)" d="M337.31 735.063C340.958 735.016 344.694 735.493 348.338 735.775L367.934 737.037C394.227 738.053 421.678 737.166 447.651 732.715C449.064 732.79 450.194 732.918 451.521 733.449L448.842 733.962C446.715 734.405 444.635 734.089 442.502 734.673C432.956 737.288 423.297 737.892 413.486 738.584C398.462 739.643 383.798 740.193 368.743 739.262L354.689 738.305C350.544 737.883 346.242 737.07 342.086 737.062L341.625 736.691C340.594 736.689 340.469 736.717 339.562 736.316L338.623 736.184L338.217 736.054C336.787 735.684 335.44 735.998 333.938 735.566L332.969 735.454C334.375 735.392 335.957 735.464 337.31 735.063Z"/>
	<path fill="#DFE0E4" transform="matrix(0.56901 0 0 0.56901 -3.05176e-05 3.05176e-05)" d="M663.394 151.571C665.416 151.74 665.826 152.395 667.09 153.938C672.592 160.652 678.09 167.353 683.054 174.488L695.296 194.014C702.368 205.466 708.928 217.057 714.494 229.343C721.355 244.485 726.885 260.487 731.682 276.375C733.403 282.075 735.061 287.653 736.266 293.497C736.531 294.783 737.163 296.655 737.088 297.938C737.049 298.606 736.821 299.034 736.549 299.637C735.173 296.129 734.563 291.801 733.559 288.108C730.972 278.589 728.399 269.122 725.032 259.845C720.767 248.092 716.092 236.221 710.658 224.955C701.678 206.335 690.67 188.326 678.769 171.449L663.617 151.89L663.394 151.571Z"/>
	<path fill="#F3F2F4" transform="matrix(0.56901 0 0 0.56901 -3.05176e-05 3.05176e-05)" d="M726.022 500.512C725.887 502.637 725.276 503.726 724.788 505.688C724.54 506.684 724.658 507.761 724.428 508.784C723.609 512.424 721.81 516.413 719.526 519.377L719.544 520.056C719.553 520.871 719.332 521.252 719.043 522L718.843 522.754C717.84 526.671 715.391 530.036 714.24 533.879C711.869 541.792 706.799 548.935 702.89 556.125L698.874 563.741C697.473 566.243 695.983 568.471 694.862 571.147C694.22 572.679 693.23 573.997 692.42 575.438L686.885 584.814C685.794 586.565 685.076 588.507 683.869 590.201C681.996 592.829 679.653 595.063 677.728 597.644C674.671 601.741 671.987 606.102 668.754 610.1C664.606 615.229 660.122 619.702 655.628 624.491C653.799 626.441 652.215 628.599 650.344 630.515L630.515 648.897C628.146 650.944 625.962 653.256 623.525 655.216L597.375 674.58L581.654 685.141C577.559 687.816 573.201 690.918 568.669 692.782C565.169 694.22 561.662 696.986 558.012 697.739C560.214 695.844 562.757 694.958 565.232 693.562L574.502 688.151C577.41 686.411 579.982 684.07 582.83 682.393C591.814 677.101 600.377 670.704 608.65 664.36C610.815 662.7 613.184 661.296 615.279 659.553L630.938 645.902C632.849 644.367 634.499 642.644 636.268 640.951C636.855 640.39 637.57 640.037 638.027 639.367L638.248 638.998C639.791 638.434 641.57 636.06 642.755 634.871C646.224 631.39 650.888 627.77 653.732 623.812C654.815 622.305 656.918 620.979 657.748 619.498C659.269 616.785 662.371 614.784 664.135 612.182L672.138 601.875L675.748 596.998C676.106 596.241 676.466 596.139 676.873 595.498C677.834 593.988 676.462 595.63 677.293 594.635C677.739 594.101 678.172 593.637 678.562 593.051L686.028 582L686.797 580.875L689.056 577.125L690.183 575.25L692.685 570.78C693.935 569.765 694.844 567.117 695.797 565.688L697.873 562.498C698.268 561.606 697.762 562.211 698.54 561.433L698.998 560.998L699.184 560.25L700.123 558.748C700.518 557.856 700.012 558.461 700.79 557.683L701.248 557.248C701.347 556.728 701.473 556.409 701.716 555.925L701.998 555.373L702.829 553.323L703.123 552.748L703.684 551.625L705.184 549L706.358 546.995L707.593 544.498L710.427 538.5L714.184 529.875C714.693 529.028 714.46 529.632 714.746 528.773L726.022 500.512Z"/>
	<path fill="#425F70" transform="matrix(0.56901 0 0 0.56901 -3.05176e-05 3.05176e-05)" d="M337.31 735.063C328.469 733.948 319.563 733.161 310.803 731.466C238.997 717.567 171.461 681 121.18 627.794C105.877 611.6 92.0738 594.475 80.0661 575.692C50.6923 529.743 33.453 477.405 27.4037 423.323C25.0382 402.174 24.6251 380.619 25.2358 359.356C25.7873 340.156 28.6909 321.567 32.4922 302.777C37.2154 279.431 43.8108 255.9 53.2589 234C56.4442 226.617 60.2612 219.466 64.0756 212.391C82.5688 178.092 107.779 146.787 136.072 120.058C153.596 103.502 172.674 88.0602 193.046 75.1106C204.561 67.7912 216.686 61.4632 229.012 55.6351C261.688 40.1854 296.329 29.5591 332.24 25.0494C354.608 22.2404 377.809 21.903 400.328 22.5856C484.561 25.1391 565.703 58.6791 628.331 114.845C641.001 126.207 651.766 139.218 663.394 151.571L663.617 151.89L678.769 171.449C690.67 188.326 701.678 206.335 710.658 224.955C716.092 236.221 720.767 248.092 725.032 259.845C728.399 269.122 730.972 278.589 733.559 288.108C734.563 291.801 735.173 296.129 736.549 299.637L742.461 341.193C743.801 355.824 743.793 370.328 743.992 384.986L740.139 429.445L737.073 447.97C738.533 450.24 738.084 452.639 737.537 455.164L734.656 470.421C733.718 474.465 732.237 478.549 731.114 482.571C729.429 488.608 728.099 494.576 726.022 500.512L714.746 528.773C714.46 529.632 714.693 529.028 714.184 529.875L710.427 538.5L707.593 544.498L706.358 546.995L705.184 549L703.684 551.625L703.123 552.748L702.829 553.323L701.998 555.373L701.716 555.925C701.473 556.409 701.347 556.728 701.248 557.248L700.79 557.683C700.012 558.461 700.518 557.856 700.123 558.748L699.184 560.25L698.998 560.998L698.54 561.433C697.762 562.211 698.268 561.606 697.873 562.498L695.797 565.688C694.844 567.117 693.935 569.765 692.685 570.78L690.183 575.25L689.056 577.125L686.797 580.875L686.028 582L678.562 593.051C678.172 593.637 677.739 594.101 677.293 594.635C676.462 595.63 677.834 593.988 676.873 595.498C676.466 596.139 676.106 596.241 675.748 596.998L672.138 601.875L664.135 612.182C662.371 614.784 659.269 616.785 657.748 619.498C656.918 620.979 654.815 622.305 653.732 623.812C650.888 627.77 646.224 631.39 642.755 634.871C641.57 636.06 639.791 638.434 638.248 638.998L638.027 639.367C637.57 640.037 636.855 640.39 636.268 640.951C634.499 642.644 632.849 644.367 630.938 645.902L615.279 659.553C613.184 661.296 610.815 662.7 608.65 664.36C600.377 670.704 591.814 677.101 582.83 682.393C579.982 684.07 577.41 686.411 574.502 688.151L565.232 693.562C562.757 694.958 560.214 695.844 558.012 697.739C555.5 699.098 552.561 699.943 550.22 701.494C546.888 702.904 543.308 704.237 540.32 706.303L503.012 720.901C495.85 723.826 488.61 725.014 481.196 726.938C471.277 729.512 461.777 732.351 451.521 733.449C450.194 732.918 449.064 732.79 447.651 732.715C421.678 737.166 394.227 738.053 367.934 737.037L348.338 735.775C344.694 735.493 340.958 735.016 337.31 735.063Z"/>
	<path fill="#DFE0E4" transform="matrix(0.56901 0 0 0.56901 -3.05176e-05 3.05176e-05)" d="M693.204 567.406C693.327 566.536 694.306 565.266 694.753 564.489L699.344 556.566C704.167 547.994 708.659 538.795 712.503 529.742C718.483 515.658 724.102 501.137 728.178 486.375L737.073 447.97C738.533 450.24 738.084 452.639 737.537 455.164L734.656 470.421C733.718 474.465 732.237 478.549 731.114 482.571C729.429 488.608 728.099 494.576 726.022 500.512L714.746 528.773C714.46 529.632 714.693 529.028 714.184 529.875L710.427 538.5L707.593 544.498L706.358 546.995L705.184 549L703.684 551.625L703.123 552.748L702.829 553.323L701.998 555.373L701.716 555.925C701.473 556.409 701.347 556.728 701.248 557.248L700.79 557.683C700.012 558.461 700.518 557.856 700.123 558.748L699.184 560.25L698.998 560.998L698.54 561.433C697.762 562.211 698.268 561.606 697.873 562.498L695.797 565.688C694.844 567.117 693.935 569.765 692.685 570.78C692.512 570.293 692.563 570.099 692.809 569.625C693.257 568.76 693.18 568.374 693.204 567.406Z"/>
	<path fill="#D5D7DD" transform="matrix(0.56901 0 0 0.56901 -3.05176e-05 3.05176e-05)" d="M693.204 567.406C693.18 568.374 693.257 568.76 692.809 569.625C692.563 570.099 692.512 570.293 692.685 570.78L690.183 575.25L689.056 577.125L686.797 580.875L686.028 582L678.562 593.051C678.172 593.637 677.739 594.101 677.293 594.635C676.462 595.63 677.834 593.988 676.873 595.498C676.466 596.139 676.106 596.241 675.748 596.998L672.138 601.875L664.135 612.182C662.371 614.784 659.269 616.785 657.748 619.498C656.918 620.979 654.815 622.305 653.732 623.812C650.888 627.77 646.224 631.39 642.755 634.871C641.57 636.06 639.791 638.434 638.248 638.998L638.027 639.367C637.57 640.037 636.855 640.39 636.268 640.951C634.499 642.644 632.849 644.367 630.938 645.902L615.279 659.553C613.184 661.296 610.815 662.7 608.65 664.36C600.377 670.704 591.814 677.101 582.83 682.393C579.982 684.07 577.41 686.411 574.502 688.151L565.232 693.562C562.757 694.958 560.214 695.844 558.012 697.739C555.5 699.098 552.561 699.943 550.22 701.494C546.888 702.904 543.308 704.237 540.32 706.303L503.012 720.901C495.85 723.826 488.61 725.014 481.196 726.938C471.277 729.512 461.777 732.351 451.521 733.449C450.194 732.918 449.064 732.79 447.651 732.715C462.964 729.195 478.256 726.601 493.312 721.907C506.273 717.866 519.335 713.349 531.786 707.914C548.98 700.408 565.53 691.163 581.336 681.083C601.203 668.412 619.573 654.518 636.707 638.313C646.725 628.839 656.424 618.974 665.129 608.263C672.436 599.272 679.147 589.551 685.454 579.844C688.033 575.874 690.235 571.624 692.953 567.757L693.204 567.406Z"/>
	<path fill="#1B3138" transform="matrix(0.56901 0 0 0.56901 -3.05176e-05 3.05176e-05)" d="M375.789 43.3007C409.06 42.4465 441.584 45.7454 473.835 54.1761C486.552 57.5006 499.057 61.9741 511.277 66.7761C521.841 70.9272 532.361 75.2389 542.407 80.5464C567.931 94.0302 591.727 111.41 613.347 130.473L624.562 140.318C638.142 153.193 650.3 168.041 661.213 183.219C677.177 205.421 691.014 229.676 700.872 255.231C710.164 279.316 715.774 304.879 719.068 330.424C720.696 343.049 721.935 355.731 722.231 368.465C722.498 379.931 722.518 391.463 721.664 402.903C720.698 415.853 718.588 428.602 716.339 441.375C713.112 459.709 708.892 478.145 702.807 495.75C695.576 516.67 686.196 536.627 675.179 555.805C664.327 574.696 651.905 592.521 636.805 608.298C585.32 662.09 517.128 699.11 443.812 712.336C426.811 715.403 409.377 716.776 392.119 717.146L391.804 717.153C377.041 717.412 362.328 716.388 347.646 714.937L336.75 714.022C319.893 711.831 302.77 708.51 286.405 703.892C244.373 692.031 204.833 670.547 170.625 643.555C161.7 636.513 152.793 629.478 144.596 621.581C79.8349 559.182 47.131 469.869 45.4467 380.899C45.0204 358.382 47.0166 336.404 50.9994 314.25C53.5827 299.881 56.8894 285.364 61.5063 271.5C68.2648 251.205 77.6553 231.624 88.3942 213.156C102.418 189.039 118.402 167.282 137.807 147.221C148.028 136.655 159.146 127.141 170.589 117.952L190.236 102.869C234.424 72.1953 285.982 52.1043 339.404 45.4884C351.457 43.9956 363.655 43.5191 375.789 43.3007Z"/>
	<defs>
		<linearGradient id="gradient_0" gradientUnits="userSpaceOnUse" x1="532.27411" y1="603.40637" x2="228.53841" y2="154.87358">
			<stop offset="0" stop-color="#EABE73"/>
			<stop offset="1" stop-color="#FBDE98"/>
		</linearGradient>
	</defs>
	<path fill="url(#gradient_0)" transform="matrix(0.56901 0 0 0.56901 -3.05176e-05 3.05176e-05)" d="M478.927 638.491C472.472 641.42 465.17 643.341 458.332 645.144C439.078 650.218 419.309 653.593 399.385 654.363C376.868 655.234 354.496 654.264 332.289 650.242C311.709 646.513 291.771 639.894 272.625 631.578C239.536 617.206 209.211 597.529 182.754 572.978C134.031 527.763 104.056 462.088 101.743 395.625C100.277 353.49 106.426 311.403 124.37 272.946C137.369 245.086 155.888 220.085 176.768 197.642C199.404 173.312 227.522 152.481 257.216 137.527C265.977 133.115 275.043 129.482 284.148 125.864C312.958 114.413 342.185 106.661 373.308 105.574C412.645 104.201 452.163 112.01 488.438 127.166C498.832 131.509 508.875 136.667 518.77 142.036C538.042 152.493 556.544 164.803 572.587 179.814C599.1 204.624 621.412 234.04 638.074 266.275C642.243 274.341 646.565 282.478 650.015 290.883C654.844 302.643 658.308 314.922 661.14 327.294C664.566 342.26 667.022 357.653 667.54 373.018L667.323 377.062L666.941 377.438C666.903 378.2 666.892 378.629 667.168 379.354C667.463 380.126 667.477 380.558 667.5 381.375C666.795 381.388 666.138 381.478 665.437 381.566C664.837 380.225 664.234 379.25 663.216 378.188C660.097 374.933 657.276 369.957 655.398 365.873C654.488 363.895 654.234 362.174 652.712 360.479L652.43 360.18L652.295 358.698L647.907 332.088C646.402 324.494 644.318 316.947 642.005 309.562C632.186 278.205 615.265 249.497 594.769 224.004C577.441 202.452 557.77 183.216 535.125 167.263C528.976 162.931 522.438 159.104 515.926 155.348C475.242 131.884 429.45 119.416 382.456 119.572C369.675 119.614 356.366 120.426 343.771 122.618C293.754 131.32 247.367 154.269 208.189 186.274C201.624 191.637 194.918 197.026 188.93 203.036C177.567 214.438 167.856 227.156 158.639 240.31C146.878 257.095 136.943 274.757 129.751 294C118.647 323.712 115.305 356.817 116.154 388.335C116.527 402.157 117.027 415.914 119.457 429.562C122.355 445.836 127.286 460.988 133.384 476.316C141.879 497.67 153.195 518.459 167.463 536.538C171.096 541.14 175.23 545.329 179.229 549.61C193.751 565.159 209.174 578.512 226.613 590.661C236.81 597.765 247.584 603.838 258.589 609.582C276.511 618.935 295.75 627.043 315.188 632.623C350.237 642.685 388.925 645.451 424.875 639.005L462.999 628.812L463.308 628.847C465.686 629.029 468.449 627.628 470.692 626.868C471.319 626.656 471.782 626.425 472.459 626.683L473.435 627.302C473.932 627.601 474.327 627.522 474.844 627.679C475.481 627.871 476.036 628.342 476.518 628.779C478.929 628.744 483.127 632.791 485.12 634.32L485.531 635.439L484.98 635.509C484.185 635.63 483.642 635.804 483 636.283L482.252 636.377L481.125 637.125L480.562 636.941L480.188 637.5L479.627 637.502L478.863 638.063L478.927 638.491Z"/>
	<defs>
		<linearGradient id="gradient_1" gradientUnits="userSpaceOnUse" x1="495.0495" y1="611.68744" x2="268.98053" y2="147.65051">
			<stop offset="0" stop-color="#A67A58"/>
			<stop offset="1" stop-color="#AE9177"/>
		</linearGradient>
	</defs>
	<path fill="url(#gradient_1)" transform="matrix(0.56901 0 0 0.56901 -3.05176e-05 3.05176e-05)" d="M462.999 628.812L424.875 639.005C388.925 645.451 350.237 642.685 315.188 632.623C295.75 627.043 276.511 618.935 258.589 609.582C247.584 603.838 236.81 597.765 226.613 590.661C209.174 578.512 193.751 565.159 179.229 549.61C175.23 545.329 171.096 541.14 167.463 536.538C153.195 518.459 141.879 497.67 133.384 476.316C127.286 460.988 122.355 445.836 119.457 429.562C117.027 415.914 116.527 402.157 116.154 388.335C115.305 356.817 118.647 323.712 129.751 294C136.943 274.757 146.878 257.095 158.639 240.31C167.856 227.156 177.567 214.438 188.93 203.036C194.918 197.026 201.624 191.637 208.189 186.274C247.367 154.269 293.754 131.32 343.771 122.618C356.366 120.426 369.675 119.614 382.456 119.572C429.45 119.416 475.242 131.884 515.926 155.348C522.438 159.104 528.976 162.931 535.125 167.263C557.77 183.216 577.441 202.452 594.769 224.004C615.265 249.497 632.186 278.205 642.005 309.562C644.318 316.947 646.402 324.494 647.907 332.088L652.295 358.698C648.362 356.238 645.153 351.109 642.023 347.625L609.3 309.415C603.222 301.721 597.75 292.979 591.157 285.79C590.48 288.637 588.667 294.056 586.167 295.832C585.304 296.445 583.276 296.26 582.152 296.459L581.807 296.504C577.929 290.402 570.148 284.035 563.612 281.041L562.951 280.743C560.28 279.508 557.053 279.837 554.155 279.406C552.559 279.573 550.46 279.139 548.824 278.979L537.095 277.68C527.091 275.447 516.57 271.051 507.245 266.845C504.315 265.603 501.65 264.148 498.519 263.443C490.809 261.725 482.439 262.743 475.528 266.601C475.128 265.953 474.702 265.316 474.188 264.753C470.265 260.467 455.1 244.693 450.375 244.483L449.912 244.976C446.255 247.148 440.943 247.542 437.77 250.096C435.091 247.948 432.693 244.871 430.216 242.436L416.648 229.804C411.962 225.523 407.305 221.319 402.083 217.688C399.761 216.073 397.078 214.299 394.384 213.402C390.209 208.009 385.002 203.72 379.436 199.833C365.478 190.087 348.637 183.185 331.735 181.013C310.22 178.248 287.123 184.758 270.117 198.078C265.458 201.727 261.208 205.846 257.414 210.385C239.047 206.3 218.382 213.25 202.902 223.016C184.606 234.557 169.426 256.708 164.784 277.843C161.627 292.213 163.274 305.054 166.488 319.125C167.114 321.865 168.838 326.665 166.8 328.816L166.567 329.062C164.143 329.31 161.646 329.014 159.212 328.919C154.604 328.74 149.737 328.593 145.167 329.243C143.7 329.451 142.316 329.679 141.337 330.903C138.309 334.684 139.298 343.075 140.043 347.644C141.399 355.949 143.526 364.197 145.493 372.375C148.229 383.749 150.908 395.226 154.905 406.238C160.789 422.445 170.051 438.716 180.86 452.141C184.696 456.905 188.846 461.444 193.253 465.684C195.382 467.732 198.044 469.57 199.945 471.79L199.247 472.5C199.407 473.872 201.178 475.628 202.025 476.71C206.169 482.001 210.563 486.778 215.824 490.986C239.537 509.955 270.902 522.711 300.508 528.566C312.12 530.862 324.082 532.037 335.882 532.919C342.299 533.399 348.747 533.26 355.178 533.279C356.594 533.284 360.02 532.912 361.177 533.374C362.053 533.724 363.35 534.873 364.137 535.469C367.547 538.052 370.595 541.383 373.663 544.365L391.622 561.725L415.685 584.625L441.539 609.96L453.543 620.983L459.921 626.912C460.416 627.329 461.437 628.366 462.014 628.55C462.353 628.658 462.726 628.549 463.082 628.548L462.999 628.812Z"/>
	<path fill="#1F7D24" transform="matrix(0.56901 0 0 0.56901 -3.05176e-05 3.05176e-05)" d="M554.155 279.406C555.099 279.246 556.105 279.25 557.062 279.191L557.066 277.875C557.409 277.451 557.663 277.079 557.909 276.587L558.752 274.877C559.175 274.013 559.737 273.304 560.159 272.462L564.377 264.002L564.566 263.438L565.691 260.438C565.875 259.892 566.058 259.387 566.171 258.821C566.239 258.475 566.276 257.94 566.441 257.625L566.812 257.066C566.769 256.291 566.727 255.88 567.084 255.165C567.456 254.42 567.329 254.88 567.477 254.174C567.574 253.712 567.684 253.363 567.857 252.926L568.114 252.284C568.148 253.068 568.031 254.273 568.231 255C568.536 256.111 569.985 257.887 570.636 258.857C574.88 265.176 579.801 270.998 584.49 276.984C586.755 279.876 588.729 283.035 591.157 285.79C590.48 288.637 588.667 294.056 586.167 295.832C585.304 296.445 583.276 296.26 582.152 296.459L581.807 296.504C577.929 290.402 570.148 284.035 563.612 281.041L562.951 280.743C560.28 279.508 557.053 279.837 554.155 279.406Z"/>
	<path fill="#2C9422" transform="matrix(0.56901 0 0 0.56901 -3.05176e-05 3.05176e-05)" d="M449.912 244.976C444.141 240.481 441.31 235.18 438.515 228.528C437.229 225.468 435.887 222.12 435.46 218.812C434.882 214.327 435.493 209.86 438.394 206.23C442.003 201.714 446.962 200.224 452.511 199.665C459.975 198.913 468.166 201.39 475.143 203.831C489.24 208.763 502.256 215.076 513.809 224.725C519.837 229.76 526.237 236.112 530.515 242.722C532.664 240.299 534.825 237.702 537.369 235.688C541.98 232.038 548.596 229.985 554.407 229.586C557.957 229.342 561.402 230.874 563.968 233.292C567.695 236.805 568.79 241.622 568.83 246.562L568.365 252.165L568.114 252.284L567.857 252.926C567.684 253.363 567.574 253.712 567.477 254.174C567.329 254.88 567.456 254.42 567.084 255.165C566.727 255.88 566.769 256.291 566.812 257.066L566.441 257.625C566.276 257.94 566.239 258.475 566.171 258.821C566.058 259.387 565.875 259.892 565.691 260.438L564.566 263.438L564.377 264.002L560.159 272.462C559.737 273.304 559.175 274.013 558.752 274.877L557.909 276.587C557.663 277.079 557.409 277.451 557.066 277.875L557.062 279.191C556.105 279.25 555.099 279.246 554.155 279.406C552.559 279.573 550.46 279.139 548.824 278.979L537.095 277.68C527.091 275.447 516.57 271.051 507.245 266.845C504.315 265.603 501.65 264.148 498.519 263.443C490.809 261.725 482.439 262.743 475.528 266.601C475.128 265.953 474.702 265.316 474.188 264.753C470.265 260.467 455.1 244.693 450.375 244.483L449.912 244.976Z"/>
	<path fill="#1F7D24" transform="matrix(0.56901 0 0 0.56901 -3.05176e-05 3.05176e-05)" d="M498.519 263.443L498.191 240.345C498.121 235.99 498.239 231.525 497.347 227.25L494.593 217.436C501.002 223.538 507.17 230.148 511.625 237.838C513.954 241.86 515.728 246.127 518.254 250.052C518.619 250.619 518.521 250.362 518.622 250.944C514.834 255.338 508.88 261.304 507.245 266.845C504.315 265.603 501.65 264.148 498.519 263.443Z"/>
	<path fill="#8D5E3D" transform="matrix(0.56901 0 0 0.56901 -3.05176e-05 3.05176e-05)" d="M537.095 277.68L548.824 278.979C550.46 279.139 552.559 279.573 554.155 279.406C557.053 279.837 560.28 279.508 562.951 280.743L563.612 281.041C570.148 284.035 577.929 290.402 581.807 296.504L582.152 296.459C583.276 296.26 585.304 296.445 586.167 295.832C588.667 294.056 590.48 288.637 591.157 285.79C597.75 292.979 603.222 301.721 609.3 309.415L642.023 347.625C645.153 351.109 648.362 356.238 652.295 358.698L652.43 360.18L652.712 360.479C654.234 362.174 654.488 363.895 655.398 365.873C657.276 369.957 660.097 374.933 663.216 378.188C664.234 379.25 664.837 380.225 665.437 381.566C666.138 381.478 666.795 381.388 667.5 381.375C667.477 380.558 667.463 380.126 667.168 379.354C666.892 378.629 666.903 378.2 666.941 377.438L667.323 377.062L667.54 373.018C668.707 382.011 668.463 391.654 668.049 400.721C667.356 415.888 664.991 430.184 661.468 444.938C653.513 478.25 639.707 508.665 618.768 535.873C588.289 575.478 547.46 608.027 502.147 629.108L484.878 636.369C483.042 637.068 480.849 638.179 478.927 638.491L478.863 638.063L479.627 637.502L480.188 637.5L480.562 636.941L481.125 637.125L482.252 636.377L483 636.283C483.642 635.804 484.185 635.63 484.98 635.509L485.531 635.439L485.12 634.32C483.127 632.791 478.929 628.744 476.518 628.779C476.036 628.342 475.481 627.871 474.844 627.679C474.327 627.522 473.932 627.601 473.435 627.302L472.459 626.683C471.782 626.425 471.319 626.656 470.692 626.868C468.449 627.628 465.686 629.029 463.308 628.847L462.999 628.812L463.082 628.548C462.726 628.549 462.353 628.658 462.014 628.55C461.437 628.366 460.416 627.329 459.921 626.912L453.543 620.983L441.539 609.96L415.685 584.625L391.622 561.725L373.663 544.365C370.595 541.383 367.547 538.052 364.137 535.469C363.35 534.873 362.053 533.724 361.177 533.374C360.02 532.912 356.594 533.284 355.178 533.279C348.747 533.26 342.299 533.399 335.882 532.919C324.082 532.037 312.12 530.862 300.508 528.566C270.902 522.711 239.537 509.955 215.824 490.986C210.563 486.778 206.169 482.001 202.025 476.71C201.178 475.628 199.407 473.872 199.247 472.5L199.945 471.79C215.999 483.625 233.133 492.061 252.461 497.13C255.322 492.179 258.227 486.333 259.565 480.766L259.895 480.779C265.292 481.054 270.764 482.44 276.188 482.953C289.877 484.246 303.236 483.566 316.832 481.725C326.9 479.848 336.538 476.943 345.935 472.86C353.246 469.684 360.16 465.461 366.906 461.253C369.683 459.522 373.735 457.819 374.982 454.672L378.628 437.826C382.691 422.268 390.475 407.777 401.439 396.048C405.803 391.506 410.143 386.958 415.013 382.948C429.175 371.286 445.566 363.423 463.009 358.013C467.33 356.617 471.786 355.849 476.253 355.092C482.61 353.847 490.519 353.971 496.936 354.7C498.281 349.796 500.351 345.097 502.176 340.358C507.871 325.573 514.107 309.002 524.629 296.895C528.344 292.619 532.544 289.703 536.986 286.312L536.921 285.239L536.873 285.037L537.033 280.074L537.095 277.68Z"/>
	<path fill="#E0B889" transform="matrix(0.56901 0 0 0.56901 -3.05176e-05 3.05176e-05)" d="M374.982 454.672C374.776 461.706 373.328 470.58 375.409 477.353L374.812 476.645C371.632 478.023 368.765 480.441 365.812 482.267C360.52 485.54 354.954 488.575 349.214 490.994C340.829 494.528 332.028 497.08 323.059 498.615C305.95 501.545 287.033 501.475 269.808 499.819C264.075 499.268 258.027 498.683 252.461 497.13C255.322 492.179 258.227 486.333 259.565 480.766L259.895 480.779C265.292 481.054 270.764 482.44 276.188 482.953C289.877 484.246 303.236 483.566 316.832 481.725C326.9 479.848 336.538 476.943 345.935 472.86C353.246 469.684 360.16 465.461 366.906 461.253C369.683 459.522 373.735 457.819 374.982 454.672Z"/>
	<path fill="#EC953A" transform="matrix(0.56901 0 0 0.56901 -3.05176e-05 3.05176e-05)" d="M652.43 360.18L652.712 360.479C654.234 362.174 654.488 363.895 655.398 365.873C657.276 369.957 660.097 374.933 663.216 378.188C664.234 379.25 664.837 380.225 665.437 381.566C666.138 381.478 666.795 381.388 667.5 381.375C667.477 380.558 667.463 380.126 667.168 379.354C666.892 378.629 666.903 378.2 666.941 377.438L667.323 377.062L667.54 373.018C668.707 382.011 668.463 391.654 668.049 400.721C667.356 415.888 664.991 430.184 661.468 444.938C653.513 478.25 639.707 508.665 618.768 535.873C588.289 575.478 547.46 608.027 502.147 629.108L484.878 636.369C483.042 637.068 480.849 638.179 478.927 638.491L478.863 638.063L479.627 637.502L480.188 637.5L480.562 636.941L481.125 637.125L482.252 636.377L483 636.283C483.642 635.804 484.185 635.63 484.98 635.509L485.531 635.439L485.12 634.32C483.127 632.791 478.929 628.744 476.518 628.779C476.036 628.342 475.481 627.871 474.844 627.679C474.327 627.522 473.932 627.601 473.435 627.302L472.459 626.683C471.782 626.425 471.319 626.656 470.692 626.868C468.449 627.628 465.686 629.029 463.308 628.847L462.999 628.812L463.082 628.548C485.838 621.554 507.378 611.225 527.66 598.824C550.27 584.999 570.615 569.116 588.355 549.307C606.715 528.805 623.351 505.904 634.505 480.631C645.008 456.835 650.925 429.627 652.642 403.714C653.605 389.167 653.229 374.718 652.43 360.18Z"/>
	<path fill="#E0B889" transform="matrix(0.56901 0 0 0.56901 -3.05176e-05 3.05176e-05)" d="M573.317 397.023C577.954 401.964 581.562 407.953 584.727 413.909C594.553 432.403 599.19 452.606 598.461 473.543C597.509 500.917 584.635 523.852 564.75 542.263C545.858 559.756 521.79 570.156 496.13 571.983C492.639 572.232 489.062 572.622 485.563 572.491C479.443 572.262 472.931 571.787 466.927 570.587C457.602 568.724 447.928 565.135 439.241 561.309L439.242 561.265L436.772 560.069L437.081 559.824C439.865 557.836 441.458 554.857 444.138 552.821C446.117 551.318 448.626 551.403 450.535 549.854L456.368 551.451C464.523 553.635 472.498 555.107 480.961 555.343C500.149 555.877 520.377 552.765 537.349 543.392C543.934 539.756 549.821 535.092 555.272 529.94L553.09 480.609C557.465 482.269 561.731 483.522 566.329 484.418C568.583 484.857 570.839 485.221 573.127 485.422C574.962 485.584 578.743 485.409 580.03 486.668C580.347 486.281 580.622 485.912 580.811 485.444C582.56 481.112 582.342 476.097 582.352 471.518C582.382 457.287 581.293 442.118 575.488 428.933C573.442 424.287 570.97 419.862 568.374 415.504C567.105 413.373 565.376 411.186 564.429 408.907L564.206 408.352C565.564 406.168 565.566 402.94 567.256 400.984C568.938 399.037 571.912 399.367 573.317 397.023Z"/>
	<path fill="#EC953A" transform="matrix(0.56901 0 0 0.56901 -3.05176e-05 3.05176e-05)" d="M553.09 480.609C557.465 482.269 561.731 483.522 566.329 484.418C568.583 484.857 570.839 485.221 573.127 485.422C574.962 485.584 578.743 485.409 580.03 486.668C575.788 503.615 568.869 518.397 555.272 529.94L553.09 480.609Z"/>
	<path fill="#E8482D" transform="matrix(0.56901 0 0 0.56901 -3.05176e-05 3.05176e-05)" d="M537.095 277.68L548.824 278.979C550.46 279.139 552.559 279.573 554.155 279.406C557.053 279.837 560.28 279.508 562.951 280.743L563.612 281.041C570.148 284.035 577.929 290.402 581.807 296.504C591.689 312.993 594.867 332.133 590.082 350.908C587.475 361.137 582.969 370.042 577.365 378.905C574.568 383.328 571.75 387.612 568.298 391.565C561.513 383.898 552.557 377.512 544.157 371.727C536.88 367.121 529.385 363.28 521.338 360.181C513.158 357.675 505.549 355.411 496.936 354.7C498.281 349.796 500.351 345.097 502.176 340.358C507.871 325.573 514.107 309.002 524.629 296.895C528.344 292.619 532.544 289.703 536.986 286.312L536.921 285.239L536.873 285.037L537.033 280.074L537.095 277.68Z"/>
	<path fill="#F56735" transform="matrix(0.56901 0 0 0.56901 -3.05176e-05 3.05176e-05)" d="M543.769 288.327C554.721 295.33 559.573 305.624 562.296 317.969C565.423 332.14 562.17 345.158 554.414 357.16C551.425 361.785 548.017 367.87 544.157 371.727C536.88 367.121 529.385 363.28 521.338 360.181C524.682 356.818 526.813 351.334 528.731 347.045C534.722 333.642 539.787 319.966 542.468 305.481C543.551 299.63 543.751 294.251 543.769 288.327Z"/>
	<path fill="#F76A39" transform="matrix(0.56901 0 0 0.56901 -3.05176e-05 3.05176e-05)" d="M537.033 280.074L537.562 284.852C538.12 285.065 538.579 285.194 539.165 285.311C540.799 285.638 542.583 287.19 543.769 288.327C543.751 294.251 543.551 299.63 542.468 305.481C539.787 319.966 534.722 333.642 528.731 347.045C526.813 351.334 524.682 356.818 521.338 360.181C513.158 357.675 505.549 355.411 496.936 354.7C498.281 349.796 500.351 345.097 502.176 340.358C507.871 325.573 514.107 309.002 524.629 296.895C528.344 292.619 532.544 289.703 536.986 286.312L536.921 285.239L536.873 285.037L537.033 280.074Z"/>
	<path fill="#FFE99B" transform="matrix(0.56901 0 0 0.56901 -3.05176e-05 3.05176e-05)" d="M476.253 355.092C482.61 353.847 490.519 353.971 496.936 354.7C505.549 355.411 513.158 357.675 521.338 360.181C529.385 363.28 536.88 367.121 544.157 371.727C552.557 377.512 561.513 383.898 568.298 391.565L573.317 397.023C571.912 399.367 568.938 399.037 567.256 400.984C565.566 402.94 565.564 406.168 564.206 408.352L564.429 408.907C565.376 411.186 567.105 413.373 568.374 415.504C570.97 419.862 573.442 424.287 575.488 428.933C581.293 442.118 582.382 457.287 582.352 471.518C582.342 476.097 582.56 481.112 580.811 485.444C580.622 485.912 580.347 486.281 580.03 486.668C578.743 485.409 574.962 485.584 573.127 485.422C570.839 485.221 568.583 484.857 566.329 484.418C561.731 483.522 557.465 482.269 553.09 480.609L555.272 529.94C549.821 535.092 543.934 539.756 537.349 543.392C520.377 552.765 500.149 555.877 480.961 555.343C472.498 555.107 464.523 553.635 456.368 551.451L450.535 549.854C448.626 551.403 446.117 551.318 444.138 552.821C441.458 554.857 439.865 557.836 437.081 559.824L436.772 560.069C431.953 557.996 427.131 555.812 422.625 553.113C407.14 543.84 391.918 528.361 384.583 511.744C383.397 509.901 382.534 507.555 381.647 505.535C377.831 496.842 375.49 486.858 375.409 477.353C373.328 470.58 374.776 461.706 374.982 454.672L378.628 437.826C382.691 422.268 390.475 407.777 401.439 396.048C405.803 391.506 410.143 386.958 415.013 382.948C429.175 371.286 445.566 363.423 463.009 358.013C467.33 356.617 471.786 355.849 476.253 355.092Z"/>
	<path fill="#E9BB50" transform="matrix(0.56901 0 0 0.56901 -3.05176e-05 3.05176e-05)" d="M497.884 373.334C505.28 373.977 512.505 375.404 519.499 377.913C530.207 381.755 540.324 388.152 549.428 394.907C554.377 398.579 559.446 402.598 563.439 407.313L564.206 408.352L564.429 408.907C565.376 411.186 567.105 413.373 568.374 415.504C570.97 419.862 573.442 424.287 575.488 428.933C581.293 442.118 582.382 457.287 582.352 471.518C582.342 476.097 582.56 481.112 580.811 485.444C580.622 485.912 580.347 486.281 580.03 486.668C578.743 485.409 574.962 485.584 573.127 485.422C570.839 485.221 568.583 484.857 566.329 484.418C561.731 483.522 557.465 482.269 553.09 480.609L551.935 480.128C548.361 461.299 541.887 443.558 534.425 425.964C528.936 413.022 523.463 400.368 514.379 389.438C509.164 383.163 503.009 378.884 496.568 374.062L496.506 373.579L497.884 373.334Z"/>
	<defs>
		<linearGradient id="gradient_2" gradientUnits="userSpaceOnUse" x1="513.87439" y1="504.66388" x2="422.60928" y2="376.88632">
			<stop offset="0" stop-color="#FBE5B5"/>
			<stop offset="1" stop-color="white"/>
		</linearGradient>
	</defs>
	<path fill="url(#gradient_2)" transform="matrix(0.56901 0 0 0.56901 -3.05176e-05 3.05176e-05)" d="M476.253 355.092C482.61 353.847 490.519 353.971 496.936 354.7C505.549 355.411 513.158 357.675 521.338 360.181C529.385 363.28 536.88 367.121 544.157 371.727C552.557 377.512 561.513 383.898 568.298 391.565L573.317 397.023C571.912 399.367 568.938 399.037 567.256 400.984C565.566 402.94 565.564 406.168 564.206 408.352L563.439 407.313C559.446 402.598 554.377 398.579 549.428 394.907C540.324 388.152 530.207 381.755 519.499 377.913C512.505 375.404 505.28 373.977 497.884 373.334C493.926 372.771 489.852 372.888 485.869 373.074C467.19 373.949 447.008 381.679 432.048 392.896C417.063 404.132 404.925 419.012 398.817 436.897C396.682 443.149 395.495 450.03 394.581 456.565C393.238 466.159 393.382 476.035 393.619 485.698C394.242 490.779 395.931 495.298 397.347 500.171C399.572 504.881 401.525 509.465 404.299 513.913C414.128 529.667 429.97 542.501 447.455 548.793L450.535 549.854C448.626 551.403 446.117 551.318 444.138 552.821C441.458 554.857 439.865 557.836 437.081 559.824L436.772 560.069C431.953 557.996 427.131 555.812 422.625 553.113C407.14 543.84 391.918 528.361 384.583 511.744C383.397 509.901 382.534 507.555 381.647 505.535C377.831 496.842 375.49 486.858 375.409 477.353C373.328 470.58 374.776 461.706 374.982 454.672L378.628 437.826C382.691 422.268 390.475 407.777 401.439 396.048C405.803 391.506 410.143 386.958 415.013 382.948C429.175 371.286 445.566 363.423 463.009 358.013C467.33 356.617 471.786 355.849 476.253 355.092Z"/>
	<path fill="#EF991A" transform="matrix(0.56901 0 0 0.56901 -3.05176e-05 3.05176e-05)" d="M393.619 485.698L393.92 485.676C396.899 485.382 400.476 486.552 403.46 487.027C412.32 488.438 421.341 488.857 430.188 487.057C453.045 482.409 469.465 464.364 480.722 445.016C483.245 440.679 486.767 430.004 491.391 428.125C494.123 427.015 497.475 428.221 499.492 430.139C503.734 434.172 506.57 440.128 509.91 444.937C520.429 460.081 534.511 473.429 551.935 480.128L553.09 480.609L555.272 529.94C549.821 535.092 543.934 539.756 537.349 543.392C520.377 552.765 500.149 555.877 480.961 555.343C472.498 555.107 464.523 553.635 456.368 551.451L450.535 549.854L447.455 548.793C429.97 542.501 414.128 529.667 404.299 513.913C401.525 509.465 399.572 504.881 397.347 500.171C395.931 495.298 394.242 490.779 393.619 485.698Z"/>
	<path fill="#FFE99B" transform="matrix(0.56901 0 0 0.56901 -3.05176e-05 3.05176e-05)" d="M199.945 471.79C198.044 469.57 195.382 467.732 193.253 465.684C188.846 461.444 184.696 456.905 180.86 452.141C170.051 438.716 160.789 422.445 154.905 406.238C150.908 395.226 148.229 383.749 145.493 372.375C143.526 364.197 141.399 355.949 140.043 347.644C139.298 343.075 138.309 334.684 141.337 330.903C142.316 329.679 143.7 329.451 145.167 329.243C149.737 328.593 154.604 328.74 159.212 328.919C161.646 329.014 164.143 329.31 166.567 329.062L166.8 328.816C168.838 326.665 167.114 321.865 166.488 319.125C163.274 305.054 161.627 292.213 164.784 277.843C169.426 256.708 184.606 234.557 202.902 223.016C218.382 213.25 239.047 206.3 257.414 210.385C261.208 205.846 265.458 201.727 270.117 198.078C287.123 184.758 310.22 178.248 331.735 181.013C348.637 183.185 365.478 190.087 379.436 199.833C385.002 203.72 390.209 208.009 394.384 213.402C397.078 214.299 399.761 216.073 402.083 217.688C407.305 221.319 411.962 225.523 416.648 229.804L430.216 242.436C432.693 244.871 435.091 247.948 437.77 250.096C440.943 247.542 446.255 247.148 449.912 244.976L450.375 244.483C455.1 244.693 470.265 260.467 474.188 264.753C474.702 265.316 475.128 265.953 475.528 266.601C482.439 262.743 490.809 261.725 498.519 263.443C501.65 264.148 504.315 265.603 507.245 266.845C516.57 271.051 527.091 275.447 537.095 277.68L537.033 280.074L536.873 285.037L536.921 285.239L536.986 286.312C532.544 289.703 528.344 292.619 524.629 296.895C514.107 309.002 507.871 325.573 502.176 340.358C500.351 345.097 498.281 349.796 496.936 354.7C490.519 353.971 482.61 353.847 476.253 355.092C471.786 355.849 467.33 356.617 463.009 358.013C445.566 363.423 429.175 371.286 415.013 382.948C410.143 386.958 405.803 391.506 401.439 396.048C390.475 407.777 382.691 422.268 378.628 437.826L374.982 454.672C373.735 457.819 369.683 459.522 366.906 461.253C360.16 465.461 353.246 469.684 345.935 472.86C336.538 476.943 326.9 479.848 316.832 481.725C303.236 483.566 289.877 484.246 276.188 482.953C270.764 482.44 265.292 481.054 259.895 480.779L259.565 480.766C258.227 486.333 255.322 492.179 252.461 497.13C233.133 492.061 215.999 483.625 199.945 471.79Z"/>
	<path fill="#E9BB50" transform="matrix(0.56901 0 0 0.56901 -3.05176e-05 3.05176e-05)" d="M394.384 213.402C397.078 214.299 399.761 216.073 402.083 217.688C407.305 221.319 411.962 225.523 416.648 229.804L430.216 242.436C432.693 244.871 435.091 247.948 437.77 250.096C440.943 247.542 446.255 247.148 449.912 244.976L450.375 244.483C455.1 244.693 470.265 260.467 474.188 264.753C474.702 265.316 475.128 265.953 475.528 266.601C482.439 262.743 490.809 261.725 498.519 263.443C501.65 264.148 504.315 265.603 507.245 266.845C516.57 271.051 527.091 275.447 537.095 277.68L537.033 280.074L536.873 285.037L536.921 285.239L536.986 286.312C532.544 289.703 528.344 292.619 524.629 296.895C514.107 309.002 507.871 325.573 502.176 340.358C500.351 345.097 498.281 349.796 496.936 354.7C490.519 353.971 482.61 353.847 476.253 355.092C471.786 355.849 467.33 356.617 463.009 358.013C445.566 363.423 429.175 371.286 415.013 382.948C410.143 386.958 405.803 391.506 401.439 396.048L386.475 380.086C386.918 379.448 387.326 378.874 387.462 378.091C387.887 375.643 387.55 372.779 387.507 370.284C387.379 362.799 386.738 355.045 387.115 347.588C381.354 347.131 375.356 347.479 369.564 347.492L340.561 347.357L246.38 346.87L212.13 346.901L203.178 346.767C201.659 346.715 199.919 346.799 198.481 346.274C198.861 346.072 198.661 346.165 199.182 345.973C200.11 345.632 200.598 342.065 200.863 340.909C204.926 323.207 213.37 307.42 228.482 296.797C242.479 286.959 259.515 283.639 276 288.412C285.436 291.144 294.06 295.957 302.437 300.971C312.032 306.714 322.554 313.847 333.782 315.737C343.201 317.322 351.831 315.572 360.469 311.704C377.504 304.077 388.286 289.35 394.747 272.241C401.694 253.844 402.582 231.525 394.384 213.402Z"/>
	<path fill="#E8482D" transform="matrix(0.56901 0 0 0.56901 -3.05176e-05 3.05176e-05)" d="M463.213 278.406L463.168 278.777C463.025 279.881 462.787 280.839 462.445 281.898C461.41 285.108 461.621 288.465 461.619 291.8L461.659 305.409C461.674 308.435 461.21 312.236 461.954 315.127C463.146 325.635 466.869 335.541 471.368 345.05C472.95 348.395 474.909 351.654 476.253 355.092C471.786 355.849 467.33 356.617 463.009 358.013C462.434 357.162 462.684 355.874 462.694 354.844C462.717 352.369 463.019 349.533 462.06 347.217C460.957 346.385 459.412 346.617 458.091 346.662L447.891 347.153C453.459 328.165 457.108 310.159 454.961 290.234C456.295 288.297 457.27 286.165 458.542 284.192C459.889 282.102 461.553 280.249 463.213 278.406Z"/>
	<path fill="#1F7D24" transform="matrix(0.56901 0 0 0.56901 -3.05176e-05 3.05176e-05)" d="M449.912 244.976L450.375 244.483C455.1 244.693 470.265 260.467 474.188 264.753C474.702 265.316 475.128 265.953 475.528 266.601C470.425 270.011 466.746 273.376 463.213 278.406C461.553 280.249 459.889 282.102 458.542 284.192C457.27 286.165 456.295 288.297 454.961 290.234C452.518 276.394 445.383 261.863 437.77 250.096C440.943 247.542 446.255 247.148 449.912 244.976Z"/>
	<path fill="#EC953A" transform="matrix(0.56901 0 0 0.56901 -3.05176e-05 3.05176e-05)" d="M447.891 347.153L458.091 346.662C459.412 346.617 460.957 346.385 462.06 347.217C463.019 349.533 462.717 352.369 462.694 354.844C462.684 355.874 462.434 357.162 463.009 358.013C445.566 363.423 429.175 371.286 415.013 382.948C410.143 386.958 405.803 391.506 401.439 396.048L386.475 380.086C386.918 379.448 387.326 378.874 387.462 378.091C387.887 375.643 387.55 372.779 387.507 370.284C387.379 362.799 386.738 355.045 387.115 347.588L447.891 347.153Z"/>
	<path fill="#EC953A" transform="matrix(0.56901 0 0 0.56901 -3.05176e-05 3.05176e-05)" d="M475.528 266.601C482.439 262.743 490.809 261.725 498.519 263.443C501.65 264.148 504.315 265.603 507.245 266.845C516.57 271.051 527.091 275.447 537.095 277.68L537.033 280.074L536.873 285.037L536.921 285.239L536.986 286.312C532.544 289.703 528.344 292.619 524.629 296.895C514.107 309.002 507.871 325.573 502.176 340.358C500.351 345.097 498.281 349.796 496.936 354.7C490.519 353.971 482.61 353.847 476.253 355.092C474.909 351.654 472.95 348.395 471.368 345.05C466.869 335.541 463.146 325.635 461.954 315.127C461.21 312.236 461.674 308.435 461.659 305.409L461.619 291.8C461.621 288.465 461.41 285.108 462.445 281.898C462.787 280.839 463.025 279.881 463.168 278.777L463.213 278.406C466.746 273.376 470.425 270.011 475.528 266.601Z"/>
	<path fill="#F56735" transform="matrix(0.56901 0 0 0.56901 -3.05176e-05 3.05176e-05)" d="M475.528 266.601C482.439 262.743 490.809 261.725 498.519 263.443C501.65 264.148 504.315 265.603 507.245 266.845C516.57 271.051 527.091 275.447 537.095 277.68L537.033 280.074L536.873 285.037L536.921 285.239C532.767 283.905 528.333 283.626 524.22 282.111C519.208 280.266 514.859 275.927 509.736 274.751C506.274 273.956 502.81 274.59 499.39 275.211C490.667 276.797 481.879 283.535 475.51 289.4C473.071 291.645 470.541 294.028 468.665 296.778C466.145 300.472 464.797 305.199 462.15 308.625L461.954 315.127C461.21 312.236 461.674 308.435 461.659 305.409L461.619 291.8C461.621 288.465 461.41 285.108 462.445 281.898C462.787 280.839 463.025 279.881 463.168 278.777L463.213 278.406C466.746 273.376 470.425 270.011 475.528 266.601Z"/>
	<path fill="#EEA322" transform="matrix(0.56901 0 0 0.56901 -3.05176e-05 3.05176e-05)" d="M198.646 446.573C196.807 444.508 192.752 440.371 192.107 437.75C191.786 436.443 192.453 433.771 192.444 432.322C192.433 430.581 192.048 428.828 191.699 427.125C189.598 416.894 186.636 406.341 183.044 396.531L169.392 362.765C167.571 358.113 165.042 353.489 163.548 348.75C163.176 347.567 163.093 347.043 163.641 345.938C165.676 344.871 170.154 345.62 172.551 345.644C181.169 345.729 189.892 345.544 198.481 346.274C199.919 346.799 201.659 346.715 203.178 346.767L212.13 346.901L246.38 346.87L340.561 347.357L369.564 347.492C375.356 347.479 381.354 347.131 387.115 347.588C386.738 355.045 387.379 362.799 387.507 370.284C387.55 372.779 387.887 375.643 387.462 378.091C387.326 378.874 386.918 379.448 386.475 380.086L401.439 396.048C390.475 407.777 382.691 422.268 378.628 437.826L374.982 454.672C373.735 457.819 369.683 459.522 366.906 461.253C360.16 465.461 353.246 469.684 345.935 472.86C336.538 476.943 326.9 479.848 316.832 481.725C303.236 483.566 289.877 484.246 276.188 482.953C270.764 482.44 265.292 481.054 259.895 480.779L259.565 480.766C247.056 478.11 233.619 473.887 222.591 467.288C214.144 462.234 206.871 455.786 200.255 448.549L198.646 446.573Z"/>
	<path fill="#E9BB50" transform="matrix(0.56901 0 0 0.56901 -3.05176e-05 3.05176e-05)" d="M198.646 446.573C198.83 446.276 199.103 446.017 199.196 445.681C199.319 445.241 198.719 443.134 198.639 442.572C198.369 440.664 198.372 438.764 198.371 436.842L198.372 392.541L198.945 378.354L198.911 348.041L199.46 348.002C200.176 354.494 199.282 361.167 199.316 367.687C199.32 368.491 199.538 369.147 198.941 369.75L199.316 370.312C199.316 371.736 199.714 377.22 198.941 378L200.079 413.889L200.677 437.39C200.694 441.053 201.014 444.954 200.255 448.549L198.646 446.573Z"/>
	<path fill="#EF991A" transform="matrix(0.56901 0 0 0.56901 -3.05176e-05 3.05176e-05)" d="M386.475 380.086L401.439 396.048C390.475 407.777 382.691 422.268 378.628 437.826L374.982 454.672C373.735 457.819 369.683 459.522 366.906 461.253C360.16 465.461 353.246 469.684 345.935 472.86C336.538 476.943 326.9 479.848 316.832 481.725C317.576 477.41 316.759 472.087 316.753 467.647L316.79 432.372L383.41 382.669L386.475 380.086Z"/>
</svg>
